PathFileType	4	(X/Y/Z)	C:\Users\Basilio\Documents\Thesis Gigler\squatting_fais\c3dfiles\047\SJ_pre3\markers_experimental.trc
DataRate	CameraRate	NumFrames	NumMarkers	Units	OrigDataRate	OrigDataStartFrame	OrigNumFrames
200.000000	200.000000	4	60	mm	200.000000	1071	1714
Frame#	Time	FHD			LBHD			RBHD			C7			T10			CLAV			LSHO			LUUPA			LMUPA			LDUPA			LLEP			LMEP			LRAD			LUL			LRFIN			RSHO			RUPA1			RMUPA			RDUPA			RLEP			RMEP			RRAD			RUL			RUFIN			LASI			RASI			USACR			LSACR			RSACR			LTHI1			LTHI2			LTHI3			LTHI4			LLFC			LMFC			LTIB1			LTIB2			LTIB3			LTIB4			LLMAL			LMMAL			LMT1			LMT2			LMT5			RTHI			RTHI2			RTHI3			RTHI4			RLFC			RMFC			RTIB1			RTIB2			RTIB3			RTIB4			RLMAL			RMMAL			RHEE			RMT1			RMT2			RMT5			
		X1	Y1	Z1	X2	Y2	Z2	X3	Y3	Z3	X4	Y4	Z4	X5	Y5	Z5	X6	Y6	Z6	X7	Y7	Z7	X8	Y8	Z8	X9	Y9	Z9	X10	Y10	Z10	X11	Y11	Z11	X12	Y12	Z12	X13	Y13	Z13	X14	Y14	Z14	X15	Y15	Z15	X16	Y16	Z16	X17	Y17	Z17	X18	Y18	Z18	X19	Y19	Z19	X20	Y20	Z20	X21	Y21	Z21	X22	Y22	Z22	X23	Y23	Z23	X24	Y24	Z24	X25	Y25	Z25	X26	Y26	Z26	X27	Y27	Z27	X28	Y28	Z28	X29	Y29	Z29	X30	Y30	Z30	X31	Y31	Z31	X32	Y32	Z32	X33	Y33	Z33	X34	Y34	Z34	X35	Y35	Z35	X36	Y36	Z36	X37	Y37	Z37	X38	Y38	Z38	X39	Y39	Z39	X40	Y40	Z40	X41	Y41	Z41	X42	Y42	Z42	X43	Y43	Z43	X44	Y44	Z44	X45	Y45	Z45	X46	Y46	Z46	X47	Y47	Z47	X48	Y48	Z48	X49	Y49	Z49	X50	Y50	Z50	X51	Y51	Z51	X52	Y52	Z52	X53	Y53	Z53	X54	Y54	Z54	X55	Y55	Z55	X56	Y56	Z56	X57	Y57	Z57	X58	Y58	Z58	X59	Y59	Z59	X60	Y60	Z60	

1072	5.355	-35.29417037963868	2119.17333984375	-915.6289672851565	-197.8528442382813	2077.410888671875	-992.8593750000002	-221.4845581054688	2097.9873046875	-848.750427246094	-266.5402832031251	1930.417602539063	-904.729919433594	-271.7446594238282	1608.897216796875	-863.6050415039065	-99.6450119018555	1896.258056640625	-894.9951782226565	-165.9747161865235	1916.190551757813	-1053.136596679688	-264.0271301269532	1783.08740234375	-1178.490478515625	-222.8048858642579	1759.199096679688	-1198.219360351563	-269.9994812011719	1724.74755859375	-1215.52978515625	-256.7788391113282	1657.186157226563	-1246.981567382813	-309.7425842285157	1628.848999023438	-1169.1923828125	-154.8674621582032	1500.163208007813	-1069.310913085938	-107.3022384643555	1471.32666015625	-1127.510131835938	-97.05596923828128	1501.152954101563	-1028.7060546875	-187.3023376464844	1942.253540039063	-747.9064941406251	-312.2913818359376	1829.734497070313	-615.7554321289064	-280.7496337890626	1805.122314453125	-586.5877075195314	-331.4773559570313	1776.389038085938	-573.8682250976564	-326.4692993164063	1711.25146484375	-535.0153198242189	-368.8992919921876	1671.746459960938	-608.7633666992189	-162.0211639404297	1564.322021484375	-666.4626464843751	-146.8247222900391	1534.461181640625	-598.6467895507814	-105.5745849609375	1529.70751953125	-695.5272827148439	-102.171630859375	1389.391845703125	-976.3728027343752	-106.6423416137696	1376.408935546875	-742.6864013671876	-272.9929504394532	1482.209228515625	-864.1103515625002	-281.8130493164063	1453.302001953125	-894.8215942382815	-279.5664672851563	1449.426025390625	-837.044860839844	-240.4827728271485	1257.452758789063	-1064.585693359375	-223.6009368896485	1176.603271484375	-1081.21728515625	-177.5264434814453	1168.966552734375	-1075.758422851563	-261.9565734863282	1129.114013671875	-1078.794067382813	-314.2257995605469	959.6313476562502	-1066.382202148438	-258.0942077636719	920.5600585937502	-964.3059692382815	-288.2054748535157	754.7297363281251	-1032.1484375	-320.8912963867188	732.6137084960939	-1111.11083984375	-292.4440612792969	717.6712646484376	-1077.659057617188	-307.3390808105469	635.9401245117189	-1067.236450195313	-381.8584899902344	554.4830322265626	-1116.701904296875	-335.7789001464844	548.6628417968751	-1040.677978515625	-297.2445983886719	412.1329345703126	-1060.33740234375	-305.1844177246094	407.8610839843751	-1104.4619140625	-360.0890808105469	421.0937500000001	-1135.416748046875	-271.2787780761719	1211.420166015625	-679.2706298828126	-249.6097717285157	1148.80908203125	-667.9654541015626	-216.9493865966797	1143.580810546875	-667.1598510742189	-290.2134094238282	1077.940551757813	-688.2023315429689	-312.6454772949219	929.6290283203127	-709.7850952148439	-251.7297363281251	915.6604614257815	-813.9563598632815	-288.3164672851563	801.037536621094	-713.2343750000001	-365.8493041992188	725.3261108398439	-696.8571166992189	-318.6160583496094	722.5837402343751	-693.5603637695314	-302.0711059570313	671.5610961914064	-720.3715209960939	-385.3634643554689	525.1887207031251	-714.9155883789064	-322.8417053222657	531.7484741210939	-783.6534423828127	-420.5474853515626	533.7553100585939	-785.0864257812502	-260.4075622558594	400.8374633789064	-754.1727905273439	-271.7505493164063	397.6723632812501	-711.6821899414064	-342.1710205078126	394.9652099609376	-679.5396118164064	
1073	5.36	-35.40118408203126	2114.50048828125	-915.228698730469	-197.2357330322266	2073.227783203125	-993.3816528320315	-220.7400665283204	2093.949951171875	-849.6643066406252	-266.2316284179688	1926.44921875	-904.969177246094	-272.4662170410157	1605.327758789063	-863.7999267578127	-99.31441497802737	1892.163208007813	-895.2131958007815	-166.21484375	1911.610473632813	-1053.252197265625	-263.6464843750001	1779.025024414063	-1178.8349609375	-222.6636352539063	1755.207763671875	-1198.783813476563	-269.8278808593751	1720.293090820313	-1215.968383789063	-256.6829223632813	1653.0556640625	-1247.482543945313	-309.6634521484376	1624.62109375	-1169.744506835938	-155.0382843017578	1495.923950195313	-1069.798217773438	-107.5039215087891	1467.041870117188	-1128.080200195313	-96.65047454833987	1496.770385742188	-1029.602172851563	-186.9432373046875	1938.553833007813	-748.3928833007814	-312.6899108886719	1825.693603515625	-615.8779907226564	-280.9243164062501	1800.951538085938	-587.2431640625001	-331.9335937500001	1772.124877929688	-574.0170288085939	-326.7845458984376	1707.061279296875	-535.5158081054689	-368.9408264160157	1667.954956054688	-609.5806274414064	-161.5385284423828	1560.525512695313	-666.7078857421876	-147.0848083496094	1530.790893554688	-598.3856201171876	-105.5998229980469	1525.705322265625	-695.3198242187501	-102.4746398925782	1385.369873046875	-976.297790527344	-106.8420791625977	1372.318115234375	-742.5530395507814	-273.1039428710938	1478.389404296875	-863.8523559570315	-282.1778869628907	1449.440551757813	-894.5213012695315	-279.5671997070313	1445.844116210938	-836.7126464843752	-240.0635223388672	1252.902221679688	-1064.83984375	-222.7469024658204	1172.20166015625	-1081.20849609375	-176.2392730712891	1164.398315429688	-1075.359497070313	-261.3100585937501	1124.476806640625	-1079.332885742188	-313.3958435058594	955.188415527344	-1066.542114257813	-258.1816101074219	916.4339599609377	-963.8236083984377	-287.4199218750001	750.6859741210939	-1031.904907226563	-319.4415893554688	727.8498535156251	-1110.83642578125	-292.0937500000001	713.5217285156251	-1076.842041015625	-306.7686462402344	631.1984863281251	-1066.1689453125	-380.7748718261719	550.2573852539064	-1116.107421875	-334.5981750488282	544.0773315429689	-1040.338134765625	-293.9924621582032	408.0804138183595	-1060.760864257813	-306.3184204101563	401.8222045898439	-1101.938598632813	-356.9682922363282	416.5000610351564	-1136.106079101563	-270.4315795898438	1206.910400390625	-678.5081787109376	-248.9570770263672	1144.375732421875	-667.4761962890626	-215.9101257324219	1139.006225585938	-667.0082397460939	-289.4015197753907	1073.565673828125	-687.5488281250001	-311.8826904296876	925.3333129882815	-708.8482055664064	-252.2769470214844	911.5328369140627	-814.138122558594	-287.2319030761719	796.6405029296877	-713.1152343750001	-364.4410095214844	720.9551391601564	-696.6199951171876	-317.5899963378907	717.8331909179689	-693.1813964843751	-300.9913330078126	667.0496826171876	-720.4136962890626	-384.0886230468751	520.5526123046876	-714.3302612304689	-322.4797058105469	527.6741943359376	-783.8447265625002	-420.1900634765626	528.9804687500001	-784.1586914062502	-259.3466796875001	396.8137512207032	-755.8024902343751	-269.8589782714844	393.3841857910157	-712.6910400390626	-339.8406982421876	390.3731384277345	-680.0954589843751	
1074	5.365	-34.47617340087891	2110.260009765625	-916.5747070312502	-196.9116821289063	2068.964111328125	-993.5927734375002	-220.2773132324219	2089.65234375	-849.852722167969	-265.9338684082032	1922.07275390625	-905.3336181640627	-271.7347412109376	1600.689819335938	-863.3835449218752	-99.03618621826175	1887.491333007813	-895.514099121094	-165.9626007080078	1907.020263671875	-1053.476928710938	-262.9632873535157	1774.308837890625	-1179.506591796875	-222.287094116211	1750.806030273438	-1199.170776367188	-269.6560668945313	1715.935668945313	-1216.440673828125	-256.5895996093751	1648.615356445313	-1247.973754882813	-309.6892395019532	1619.9609375	-1170.1630859375	-154.8327941894532	1491.338256835938	-1070.333129882813	-107.4035263061524	1462.270874023438	-1128.711547851563	-96.2617111206055	1492.281982421875	-1030.324584960938	-186.9417724609375	1934.204223632813	-748.4422607421876	-312.7875976562501	1821.483520507813	-616.5362548828126	-281.0060424804688	1796.731567382813	-587.6461181640626	-332.2175903320313	1767.971557617188	-574.5770874023439	-327.4291687011719	1702.90234375	-535.9645996093751	-369.2634887695313	1663.968505859375	-610.3073120117189	-162.1354064941407	1556.26708984375	-666.4040527343751	-147.4088897705078	1526.521606445313	-598.2234497070314	-105.5394363403321	1521.4794921875	-695.3121948242189	-102.5027847290039	1380.704467773438	-976.1062011718752	-107.2186126708985	1367.7568359375	-742.2902832031251	-273.3159484863282	1474.367309570313	-863.6618652343752	-282.3625488281251	1445.337768554688	-894.3926391601565	-279.8248901367188	1441.803588867188	-836.6014404296877	-239.6732330322266	1248.4541015625	-1065.182006835938	-221.8479919433594	1167.610473632813	-1081.472290039063	-174.4691009521485	1160.002319335938	-1076.249389648438	-260.5828247070313	1119.741333007813	-1079.408203125	-312.8643798828126	950.4863281250002	-1066.72314453125	-258.3302612304688	912.130554199219	-963.549987792969	-286.8166503906251	746.5947875976564	-1031.4384765625	-319.3265075683594	723.2487182617189	-1109.656372070313	-290.7905273437501	708.4372558593751	-1076.1630859375	-305.5397644042969	626.8321533203126	-1065.506958007813	-378.8117065429688	545.2566528320314	-1115.998046875	-333.1330871582032	539.0822753906251	-1039.533813476563	-291.6697692871094	404.0837402343751	-1061.797119140625	-303.3679504394532	397.6455993652345	-1103.58935546875	-355.2907409667969	412.7676696777345	-1136.52490234375	-269.7256469726563	1202.042602539063	-677.9893188476564	-247.9636230468751	1139.393310546875	-666.7241821289064	-215.0144500732422	1134.206787109375	-666.5910644531251	-288.5074462890626	1068.533813476563	-686.9723510742189	-310.9676208496094	920.5734863281252	-708.1909179687501	-252.3174896240235	907.2656250000002	-814.1296386718752	-286.4078979492188	792.143005371094	-712.7409057617189	-363.2057495117188	716.0584106445314	-695.4425048828126	-316.2059326171876	713.2325439453126	-692.8686523437501	-299.9393310546876	662.4848632812501	-720.3954467773439	-382.4369201660157	515.7655639648439	-713.8787841796876	-321.8448181152344	523.3125000000001	-784.1250610351565	-419.6797790527345	524.0669555664064	-783.1403808593752	-257.7975769042969	392.4956054687501	-757.3848876953126	-268.1593322753907	389.1148071289064	-714.0270385742189	-337.5511474609376	385.5651855468751	-680.4112548828126	
1075	5.37	-33.0854835510254	2105.314208984375	-917.4141845703127	-196.4458770751954	2064.364013671875	-993.8926391601565	-219.433334350586	2085.32421875	-850.1375732421877	-265.3659362792969	1917.160766601563	-905.6494750976565	-271.8584594726563	1596.602172851563	-863.5936279296877	-98.98810577392581	1882.65185546875	-895.5844726562502	-164.3707580566407	1902.023315429688	-1054.109252929688	-262.9450683593751	1770.046997070313	-1179.88232421875	-222.259506225586	1746.047973632813	-1199.507446289063	-268.9409484863282	1711.538696289063	-1216.903564453125	-256.1677856445313	1643.8828125	-1248.37158203125	-309.4411621093751	1615.382446289063	-1170.556518554688	-154.5926208496094	1486.57568359375	-1070.927856445313	-107.7025375366211	1457.227661132813	-1129.05224609375	-96.03964996337893	1487.436157226563	-1030.929321289063	-186.6646118164063	1929.72412109375	-748.7779541015626	-313.0067138671876	1817.076049804688	-616.8568115234376	-281.1990356445313	1792.290893554688	-588.0814208984376	-332.4438171386719	1763.604125976563	-575.0803222656251	-327.9117431640626	1698.448608398438	-536.4692993164064	-369.7012329101563	1659.477661132813	-610.9466552734376	-162.3732147216797	1551.621459960938	-666.2218017578126	-147.6337432861328	1522.00927734375	-598.0710449218751	-105.5914916992188	1516.897705078125	-694.8972778320314	-102.6587982177735	1376.042114257813	-975.934020996094	-107.5300064086914	1362.871704101563	-742.2607421875001	-273.4244079589844	1470.035278320313	-863.6436767578127	-282.5542297363282	1441.23828125	-894.201110839844	-280.3602905273438	1437.461669921875	-836.499206542969	-239.0327453613282	1243.3583984375	-1065.612060546875	-221.5118865966797	1162.645629882813	-1081.450561523438	-173.6630859375	1155.110473632813	-1075.951904296875	-260.1781921386719	1114.800903320313	-1079.554931640625	-311.8720703125001	945.251892089844	-1066.924560546875	-258.7552795410157	907.3671875000002	-963.048034667969	-285.9045410156251	741.5584716796876	-1030.794677734375	-317.0733337402344	718.3410034179689	-1110.226684570313	-290.2299194335938	704.2184448242189	-1075.553955078125	-304.4531860351563	621.8499755859376	-1065.071411132813	-377.6502075195313	540.4091186523439	-1115.668212890625	-331.6239624023438	534.0983276367189	-1039.390502929688	-288.1787414550782	399.6013488769532	-1063.069702148438	-299.3605041503907	394.1704711914064	-1105.239990234375	-352.3411560058594	408.0659179687501	-1137.400756835938	-269.1477355957032	1197.09423828125	-677.2055664062501	-247.2858581542969	1134.811157226563	-666.0502319335939	-214.226791381836	1129.480712890625	-666.1843261718751	-287.5226745605469	1063.476684570313	-686.1469116210939	-309.9823303222657	915.6541137695315	-707.2346191406251	-252.3463592529297	902.2632446289065	-814.0266723632815	-285.3410949707032	787.1245727539065	-712.3677368164064	-362.0645446777344	711.2654418945314	-694.4478149414064	-314.8866882324219	708.2361450195314	-692.5577392578126	-298.7904052734376	657.6591796875001	-720.6688842773439	-381.4942626953126	510.5507202148439	-713.1162109375001	-321.3401794433594	518.4998779296876	-783.966003417969	-419.272430419922	518.9185791015626	-781.852233886719	-256.5963134765626	388.584442138672	-758.3634643554689	-266.2015380859376	384.559783935547	-715.1971435546876	-335.1033325195313	380.5786743164063	-680.7600097656251	
